<?xml version="1.0" encoding="UTF-8"?>
<svg id="Ebene_1" xmlns="http://www.w3.org/2000/svg" version="1.1" viewBox="0 0 17.79 18.58">
  <!-- Generator: Adobe Illustrator 30.6.0, SVG Export Plug-In . SVG Version: 2.1.4 Build 109)  -->
  <defs>
    <style>
      .st0 {
        fill: #1d1d1b;
      }
    </style>
  </defs>
  <path class="st0" d="M10.74.63c-1.32,0-1.85.69-2.11,1.26,0-.21-.03-.89-.06-1.1l-1.38.02c.01.54.01,1.15.01,1.76v4.12s.01,2.57.01,2.57c0,2.12-.96,2.76-2.35,2.76-1.18,0-2.36-.59-2.36-2.76V3.51h-1.43v5.74c0,2.98,1.74,3.93,3.76,3.93s3.79-.88,3.79-4.01v-5.12c0-1.37.47-2.28,1.69-2.28,1.03,0,1.41.69,1.41,1.69v4.33h1.35V3.29c0-1.84-1-2.66-2.34-2.66Z"/>
  <circle class="st0" cx="8.33" cy="16.64" r=".69"/>
  <path class="st0" d="M15.25,10.65l-5.54,5.54-.91-.91,5.54-5.54h-5.09v-1.28h7.29v7.27h-1.28s0-5.08,0-5.08Z"/>
</svg>