<svg preserveAspectRatio="none" width="100%" height="100%" overflow="visible" style="display: block;" viewBox="0 0 12 12" fill="none" xmlns="http://www.w3.org/2000/svg">
<path id="Vector" d="M10.6022 6.44629H0.438877C0.313944 6.44629 0.209564 6.40418 0.125738 6.31995C0.0419127 6.23572 0 6.13083 0 6.0053C0 5.87976 0.0419127 5.77488 0.125738 5.69065C0.209564 5.60642 0.313944 5.5643 0.438877 5.5643H10.6022L5.82873 0.767592C5.74315 0.681745 5.69838 0.580536 5.69443 0.463967C5.69048 0.347544 5.73693 0.240676 5.83378 0.143363C5.93047 0.0495782 6.03398 0.00180368 6.14428 3.97027e-05C6.25459 -0.00157728 6.35809 0.0461972 6.45479 0.143363L11.7922 5.50653C11.8688 5.58356 11.9226 5.6622 11.9535 5.74246C11.9845 5.82272 12 5.91034 12 6.0053C12 6.10026 11.9845 6.18787 11.9535 6.26813C11.9226 6.34839 11.8688 6.42703 11.7922 6.50406L6.45479 11.8672C6.37272 11.9497 6.27287 11.9938 6.15525 11.9995C6.03763 12.0051 5.93047 11.961 5.83378 11.8672C5.73693 11.7699 5.68851 11.665 5.68851 11.5526C5.68851 11.44 5.73693 11.3351 5.83378 11.2379L10.6022 6.44629Z" fill="var(--fill-0, black)"/>
</svg>
