<?xml version="1.0" encoding="UTF-8"?>
<svg id="Ebene_1" xmlns="http://www.w3.org/2000/svg" version="1.1" viewBox="0 0 70.3 22.06">
  <!-- Generator: Adobe Illustrator 30.6.0, SVG Export Plug-In . SVG Version: 2.1.4 Build 109)  -->
  <defs>
    <style>
      .st0 {
        fill: #1d1d1b;
      }
    </style>
  </defs>
  <g>
    <path class="st0" d="M11.73,4.2c-1.32,0-1.85.69-2.11,1.26,0-.21-.03-.89-.06-1.1l-1.38.02c.01.54.01,1.15.01,1.76v4.12s.01,2.57.01,2.57c0,2.12-.96,2.76-2.35,2.76-1.18,0-2.36-.59-2.36-2.76v-5.74h-1.43v5.74c0,2.98,1.74,3.93,3.76,3.93s3.79-.88,3.79-4.01v-5.12c0-1.37.47-2.28,1.69-2.28,1.03,0,1.41.69,1.41,1.69v4.33h1.35v-4.49c0-1.84-1-2.66-2.34-2.66Z"/>
    <circle class="st0" cx="9.31" cy="20.23" r=".69"/>
    <path class="st0" d="M16.24,14.23l-5.54,5.54-.91-.91,5.54-5.54h-5.09v-1.28h7.29v7.27h-1.28s0-5.08,0-5.08Z"/>
  </g>
  <g>
    <path class="st0" d="M24.41,10.67c0,2.24-.91,3.54-3.27,3.54-2.2,0-2.82-1.24-2.94-2.16h1.37c.19.71.76,1.11,1.64,1.11,1.52,0,1.88-.96,1.88-2.53v-.52c-.37.74-1,1.18-2.14,1.18-1.75,0-2.9-1.43-2.9-3.45,0-2.25,1.33-3.67,3.04-3.67,1.31,0,1.85.62,2.01,1.06.01-.3.04-.76.06-.89h1.28c0,.44-.01,1.35-.01,2.02v4.3ZM21.27,10.17c1.44,0,1.85-.96,1.85-2.45s-.37-2.4-1.81-2.4c-1.21,0-1.87,1-1.87,2.49s.73,2.36,1.83,2.36Z"/>
    <path class="st0" d="M27,8.1c.01,1.32.67,2.29,1.81,2.29,1.04,0,1.39-.52,1.59-1.02h1.36c-.28.89-1.02,2.13-2.99,2.13-2.21,0-3.13-1.77-3.13-3.59,0-2.1,1.06-3.74,3.21-3.74,2.28,0,3.04,1.8,3.04,3.34,0,.22,0,.38-.03.58h-4.86ZM30.53,7.18c-.01-1.09-.55-1.95-1.69-1.95s-1.69.81-1.8,1.95h3.49Z"/>
    <path class="st0" d="M32.46,10.27l3.91-4.81h-3.72v-1.11h5.26v1.11l-3.86,4.77h4.05l-.19,1.11h-5.45v-1.07Z"/>
    <path class="st0" d="M44.45,9.77c0,.65.06,1.39.1,1.58h-1.28c-.06-.15-.1-.5-.12-.87-.23.45-.78,1.03-2.12,1.03-1.66,0-2.36-1.09-2.36-2.14,0-1.57,1.24-2.29,3.31-2.29h1.15v-.56c0-.59-.19-1.29-1.42-1.29-1.11,0-1.31.54-1.42,1.07h-1.3c.1-1.02.73-2.12,2.76-2.1,1.74,0,2.69.71,2.69,2.31v3.27ZM39.95,2.83v-1.55h1.15v1.55h-1.15ZM43.14,7.98h-1.07c-1.35,0-2.03.38-2.03,1.31,0,.69.47,1.19,1.29,1.19,1.59,0,1.81-1.09,1.81-2.28v-.22ZM42.51,2.83v-1.55h1.14v1.55h-1.14Z"/>
    <path class="st0" d="M47.53,1.28v4.07c.34-.58.97-1.15,2.14-1.15s2.36.65,2.36,2.69v4.46h-1.35v-4.24c0-1.14-.47-1.77-1.44-1.77-1.22,0-1.72.84-1.72,2.21v3.81h-1.35V1.28h1.35Z"/>
    <path class="st0" d="M53.76,6.15c0-.6,0-1.22-.01-1.8h1.29c.03.21.06.69.06,1.03.33-.6.93-1.2,2.02-1.2.99,0,1.65.51,1.91,1.21.38-.65,1.03-1.21,2.21-1.21s2.21.69,2.21,2.57v4.59h-1.32v-4.44c0-.77-.29-1.58-1.32-1.58s-1.54.8-1.54,2.01v4.01h-1.32v-4.38c0-.86-.25-1.63-1.29-1.63s-1.56.84-1.56,2.14v3.87h-1.33v-5.19Z"/>
    <path class="st0" d="M64.22,4.36h1.18v-2.03h1.35v2.03h1.51v1.07h-1.51v3.97c0,.66.17.98.78.98.17,0,.4,0,.58-.06v1c-.32.11-.74.12-1.09.12-1.15,0-1.62-.59-1.62-1.77v-4.24h-1.18v-1.07Z"/>
  </g>
</svg>